<svg xmlns="http://www.w3.org/2000/svg" width="205.53287mm" height="32.387154mm" viewBox="0 0 205.53287 32.387154"><path d="m17.455 32.29-1.397.097-1.33-.13-1.33-.131-.24-.236-.24-.237.925-.185.924-.184-.177-.288-.178-.288-1.045-.196-1.044-.196-.347-.554-.346-.555h-.744v-.591h-.887v-.887l-.517-.004-.518-.004.444-.287.443-.286-.538-.005-.539-.005-.422-.422-.422-.422v-8.91H9.703v-.887H7.93V10.29h.325l.86.445.86.445.765 1.303.764 1.304.297.985.298.986.364 2.787.364 2.787.36.12.359.12v-2.967l-.448-2.13-.448-2.131-.54-1.215-.54-1.214-.8-.947-.8-.946-1.02-.37-1.02-.368V7.038h5.912v-.887H7.93V1.493l.813-.321.812-.322L10.97.507l1.413-.342 1.326.149 1.325.15.143-.232L15.32 0l1.256.116 1.256.116.591.27.591.27 1.774.518 1.773.52.667.709.666.71.262-.162.262-.162 1.325 1.253 1.325 1.254.861 1.33.861 1.33.58 1.12.58 1.12-.394.243-.394.244.644.168.645.169-.2.907-.199.907h.98l-.197.899-.197.899.336.405.336.405-.33.203-.328.203.532.589.533.589-.587.435-.588.434.547.406.547.405-.22.356-.22.355-.036.625-.037.625-.478-.08-.479-.078-.215.522-.216.523-.227.887-.228.886-.213.518-.214.517h.655v-1.11L29.95 23l.444-.368.034-.629.034-.629.142.551.142.552-1.073 2.17-1.072 2.169-.92.655-.92.655-1.26 1.26-1.259 1.259-1.284.33-1.284.33-1.412.444-1.411.444zM30.69 19.453h.296v-.591h-.591v.591zM6.736 25.66H6.43L4.741 23.94l-1.689-1.722-.37-.483-.369-.483.01-.973.011-.973.414-2.323.414-2.322.792-1.62.792-1.618.927-.565.927-.565.221-.001.222-.001V16.497H5.22l.12.37.122.369.79.093.79.094v8.237zm38.012-2.58-6.373.068v-.409l.296-.182.296-.183V8.634l-.355-.354-.355-.355H50.81l1.003.418 1.002.42.462.704.462.706.187.934.187.934-.183.727-.182.727-.727.864-.726.863.863.638.863.638.315 1.17.315 1.172-.2.823-.199.824-.542.777-.542.776-1.024.486-1.023.486zm.973-2.445h3.208l.932-.325.933-.325.178-.71.178-.709-.173-.688-.172-.689-.76-.346-.76-.346h-6.771v4.138zm.34-6.798h3.547l.591-.592.591-.59v-.822l-.564-.698-.564-.698-3.574-.098-3.574-.099v3.597zm18.807 9.438-2.106-.021-1.182-.537-1.183-.536-.942-.995-.943-.994-.314-.832-.313-.832v-3.533l.56-1.096.56-1.097.548-.483.549-.483 1.33-.686 1.33-.686 2.373-.013 2.372-.014 1.468.755 1.467.756.87 1.238.871 1.239.13 1.804.131 1.804-.374 1.133-.374 1.133-1.068 1.042-1.067 1.042-1.294.457-1.293.456-2.106-.021zm.224-2.345h1.443l.964-.595.964-.596.475-1 .475-1.001-.001-.99-.002-.99-.576-.945-.576-.944-.698-.458-.698-.457-1.311-.166-1.311-.166-1.029.534-1.028.533-.671 1.004-.671 1.005v2l.425 1.019.426 1.019.978.596.979.597h1.443zm12.2 2.155-2.024.063-.118-.19-.118-.192.442-.17.442-.169V11.39l-.517-.392-.518-.393 2.623-.01 2.622-.009-.384.463-.384.464 3.6 3.6 3.6 3.6v-7.536h-.592v-.591h4.23l-.49.54-.489.541V22.071l.465.465.464.464-.095.013-.095.013-2.069.012-2.069.013-.295-.03-.296-.03.443-.284.444-.284-3.77-3.775-3.768-3.774v7.505l.517.302.518.301-.148.02-.148.02-2.024.063zm24.912-.01-.128.086-1.33-.184-1.33-.184.369-.044.37-.045V11.295l-.355-.355-.355-.355H110.5v-.591h.457v2.365h-.422l-.183-.296-.182-.296h-8.538v4.176l3.252-.093 3.253-.092-.024 1.182-.024 1.183-.15-.37-.148-.37H101.632v4.908l.35.35.35.35zm11.734-.032-1.369.11v-.254l.417-.467.416-.467 2.419-5.258 2.418-5.26-.165-.43-.166-.432h2.882l-.131.517-.132.518 2.388 5.162 2.388 5.163.432.477.431.477v.249l-1.518-.105-1.519-.106.403-.248.403-.25-.645-1.325-.644-1.326-2.935-.093-2.935-.094-.424.085-.425.085-.662 1.364-.663 1.364.352.218.352.217zm5.426-4.772h2.657l-.765-1.7-.765-1.7-.569-1.298-.569-1.298-.1.116-.101.116-1.222 2.734-1.223 2.735v.295zm15.993 5.002-1.653-.022-.964-.35-.964-.35-1.032-.823-1.032-.823-.621-1.218-.621-1.217.113-2.009.114-2.008.88-1.253.88-1.252 1.44-.74 1.438-.741 2.402.009 2.4.009 1.535.67 1.533.67.314-.194.314-.194v.409l-.635 1.028-.636 1.027-.282-.503-.282-.504-1.225-.557-1.226-.556-1.922-.002-1.921-.002-1.174.665-1.173.665-.674 1-.674 1v3.37l.881 1.217.881 1.216.967.513.966.513 1.78.014 1.78.015 1.46-.75 1.462-.752.164-.696.165-.696.807 1.058.806 1.058v.37l-.297-.184-.298-.184-.906.645-.906.646-1.356.408-1.356.408-1.652-.023zm31.61-.05-2.226.075-1.445-.58-1.445-.579-.695-.653-.696-.653-.593-1.227-.594-1.227v-3.088l.591-1.16.592-1.159.664-.639.665-.639 1.327-.6 1.327-.599 2.072-.022 2.073-.023 1.134.395 1.134.394 1.026.901 1.027.902.605 1.186.605 1.186-.119 1.865-.119 1.866-.876 1.246-.875 1.247-1.468.755-1.467.755-2.225.075zm.193-1.237 1.531-.121 1.072-.509 1.071-.508.78-1.022.779-1.022.103-1.67.103-1.672-.677-1.16-.678-1.16-1.303-.687-1.302-.687H164.686l-1.302.687-1.303.687-.66 1.16-.66 1.16-.006 1.42-.005 1.418.416.798.415.798.736.687.735.687 1.288.42 1.288.418zm23.002 1.023-.296.143-1.263-.093-1.263-.094.174-.281.174-.282-1.57-2.511-1.572-2.512-2.365.076-2.365.077-.086 2.138-.087 2.138.319.596.319.596h-2.407l.306-.572.306-.571V11.729l-.32-.598-.32-.598 4.828.1 4.828.1.783.532.783.531.363.878.363.877-.176 1.086-.176 1.086-.554.553-.553.554-1.044.359-1.044.359 1.662 2.57 1.662 2.571.443.089.444.088zm-6.867-6.808h3.652l.647-.602.647-.603v-1.954l-.622-.564-.621-.563h-7.182l-.086 2.143-.087 2.143zm16.069 6.842-1.369.11v-.414l.296-.182.295-.183V17.77l-1.962-2.632-1.963-2.631-.903-.961-.904-.96h3.44l-.346.416-.345.416 1.713 2.381 1.714 2.381.201.01.202.011 1.673-2.375 1.674-2.375-.166-.433-.166-.433 1.542.007 1.543.006-.63.511-.63.51-2.144 2.916-2.143 2.916.056 2.546.056 2.545.317.196.317.196-1.368.11zm-48.53-.066-1.464-.024.37-.149.37-.149V11.768h-4.73v.591h-.591V9.876l.354.354.355.355h10.7l.355-.355.355-.354v2.6l-.355-.354-.354-.354h-4.612V22.29l.355.354.355.355-1.463-.023zM1.446 18.862h-.193l-.414-1.848-.414-1.847-.018-.591-.019-.592-.194-.3-.194-.3.01-1.473.01-1.474.366-.886.366-.887.331-.813.331-.813h5.629v2.275l-1.156.454-1.156.454-.916 1.265-.916 1.265-.459 1.503-.458 1.504-.171 1.552-.171 1.552zm3.119-12.71H2.086L3.16 4.994l1.075-1.157L5.639 2.78 7.043 1.72v4.43z" style="fill:#1d1413;stroke-width:.295592"/></svg>