<svg xmlns="http://www.w3.org/2000/svg" id="_레이어_1" width="1784.21" height="856.21" viewBox="0 0 1784.21 856.21"><defs><style>.cls-4{stroke-width:0;fill:#010101}</style></defs><path d="M460.99 0c7.6 1.73 15.37 2.94 22.78 5.29 30.81 9.76 53.54 30.13 71.88 55.93 18.09 25.45 29.4 54.23 39.94 83.28 12.64 34.81 21.7 70.56 25.83 107.41 3.21 28.7 3.97 57.4-4.28 85.55-8.26 28.2-24.79 44.54-59.52 48.82-29.33 3.62-57.63-2.06-85.36-11-41.86-13.5-80.6-33.31-115.03-60.66-35.06-27.85-56.62-64.24-63.13-108.8-5.12-35.08.67-68.72 16.05-100.57 17.83-36.94 43.63-66.95 79.21-87.97C404.15 8.54 420.11 2.9 437.26.87c.5-.06.95-.56 1.42-.86h22.3Z" style="stroke-width:0;fill:#006ecc"/><path d="M1784.21 592.51c-1.2 2.17-2.24 4.45-3.61 6.5-3.92 5.88-9.65 9.62-16.48 10.06-10.11.66-20.29.17-30.73.17V466.89c-.3-.09-.6-.17-.9-.26-.4 1.25-.81 2.5-1.2 3.75-12.13 39.68-24.56 79.28-36.21 119.1-4.15 14.18-12.97 18.82-26.93 20.43-4.87.56-9.86.09-15.09.09-16.17-47.81-32.34-95.63-48.51-143.45-.35.04-.7.09-1.05.13v116.18c0 16.98-8.35 26.08-25.47 27.06-8.33.48-16.7.08-25.67.08v-5.4c0-69.03.28-138.05-.16-207.07-.14-21.48 11.15-28.86 28.16-29.51 12.21-.47 24.45-.09 37.18-.09 17.26 52.8 34.53 105.6 51.79 158.41.33.01.66.03 1 .04 1.98-5.88 4.01-11.75 5.93-17.65 13.4-41.21 26.79-82.43 40.16-123.65 3.24-9.98 10.56-15.14 20.49-16.31 7.5-.88 15.13-.7 22.7-.84 8.2-.15 16.41-.12 24.61-.17v224.75Z" style="stroke-width:0;fill:#020202"/><path d="M774.97 263.75c45.41 1.8 99.74 13.04 149.22 40.7 48.79 27.28 77.43 69.88 84.65 125.5 6.13 47.15-6.36 90.44-31.52 130.26-14.67 23.23-33.08 42.89-57.86 55.63-36.6 18.81-73.04 16.58-108.94-1.99-24.78-12.81-44.59-31.56-61.53-53.44-33.51-43.31-60.93-90.08-79.29-141.84-8.82-24.86-15.25-50.26-15.27-76.89-.03-37.46 16.32-59.45 52.3-70.44 17.22-5.26 34.26-7.49 68.25-7.49Z" style="stroke-width:0;fill:#fe9700"/><path d="M517.17 856.21c-29.15-.76-57.08-5.69-82.65-20.21-33.54-19.05-52.37-48.13-57.21-86.19-3.96-31.16 2.06-60.98 13.96-89.68 21.94-52.92 50.73-101.72 88.99-144.62 14.98-16.79 31.3-32.16 50.43-44.25 11.44-7.23 23.49-13.16 37.04-15.18 19.08-2.84 35.27 4.05 49.8 15.68 20.22 16.19 34.28 37.2 45.91 59.96 21.06 41.22 33.28 85.2 37.83 131.04 5.07 51.07-8.59 96.87-43.73 135.11-28.03 30.51-63.43 47.74-103.99 54.54-12.01 2.01-24.25 2.58-36.39 3.81Z" style="fill:#ee151e;stroke-width:0"/><path d="M1301.78 610.16V408.95c0-5.88-.02-11.76 0-17.64.07-13.18 9.93-23.19 23.09-23.37 5.57-.08 11.16.21 16.72-.1 3.22-.18 5.03 1.11 6.86 3.53 35.92 47.48 71.92 94.91 107.9 142.34.64.84 1.31 1.66 2.79 3.53v-5.79c0-39.47-.09-78.93.12-118.4.03-4.66 1.09-9.56 2.81-13.9 2.61-6.62 7.91-10.86 15.24-11.09 10.8-.34 21.61-.09 32.71-.09.09 1.63.22 2.97.22 4.31.01 70.73.02 141.46 0 212.19 0 12.94-6.69 23.07-17.58 25.09-6 1.11-12.34.64-18.51.44-1.23-.04-2.62-1.88-3.57-3.16-38.64-51.81-77.25-103.66-115.86-155.49-.37-.49-.75-.96-1.87-2.4-.11 2.4-.25 3.92-.25 5.45-.01 43.8 0 87.6-.02 131.4 0 12.07-8.24 22.85-18.89 24.12-5.5.66-11.13.2-16.71.23-5.05.02-10.1 0-15.2 0ZM1263.02 368.59c0 7.97.26 16.02-.07 24.05-.42 10.14-9.7 19.57-19.95 20.71-2.61.29-5.25.39-7.87.39-34.37.02-68.75.02-103.12.02h-5.28v58.82c7.86-8.02 17.8-7.75 27.65-7.76 32.67-.01 65.34 0 98.01 0h4.93c0 9.41.81 18.42-.2 27.22-1.27 11.04-11.86 18.7-24.19 18.75-21.21.07-42.42.02-63.64.02h-42.51v61.28c6.52-6.76 14.58-7.64 23.07-7.62 35.92.09 71.84.04 107.76.04h5.27c0 7.99.72 15.76-.17 23.34-1.28 10.84-11.42 22.66-25.82 22.52-52.33-.49-104.67-.19-157-.19h-5.6V392.93c0-14 9.88-24.84 23.87-24.89 54.66-.21 109.31-.05 163.97-.02.13 0 .25.16.9.6ZM230.12 412.21c-8.61 8.54-17.81 15.65-29.33 19.21-9.58 2.97-18.17.18-26.58-4.49-8.61-4.78-17.03-10.44-26.28-13.39-35.32-11.29-70.57 5.19-87.74 40.1-18.79 38.2-5.01 85.52 31.48 105.65 24.16 13.33 48.88 12.08 73.21-.28 4.53-2.3 8.75-5.22 13.21-7.68 9.49-5.24 19.44-5.83 29.52-2.08 9.3 3.46 16.88 9.39 23.29 16.81-26.79 36.51-80.66 62.2-138.41 47.53C39.52 600.14 2.08 552.99.1 497.69c-2.19-61.12 30.23-112.02 82.77-129.85 56.32-19.11 114.12 1.77 147.24 44.37ZM293.72 414.41H248.9c.62-9.58-1.57-19.18 2.01-28.38 5.07-13.02 15.9-17.85 28.74-17.98 34.06-.34 68.12-.1 102.19-.07.27 0 .54.23.92.41 0 7.34.76 14.81-.17 22.07-1.65 12.82-13.44 22.39-27.8 23.71-1.22.11-2.43.2-4.24.35v5.04c0 43.33.05 86.66-.02 129.99-.03 19.58-2.22 38.83-9.91 57.12-11.15 26.52-31.51 43.56-57.42 54.19-12.94 5.31-26.56 9.05-40.02 13.01-7.66 2.25-9.63-.11-9.42-7.99.45-17.03 9.34-28.02 24.25-34.67 21.91-9.77 33.12-27.44 34.49-50.4 1.61-27.12 1.18-54.37 1.37-81.57.15-23.05-.09-46.11-.15-69.16-.01-5.07 0-10.14 0-15.66Z" class="cls-4"/></svg>