<svg xmlns="http://www.w3.org/2000/svg" width="425.675" height="104.438" viewBox="0 0 425.675 104.438">
  <path d="m 278.8942,58.886799 20.73148,41.836801 h 32.2139 V 2.5768077 h -30.8399 V 43.432868 a 2.7334477,2.7334477 0 0 1 -5.18529,1.213787 L 274.9761,2.5768077 H 242.7622 V 100.71874 h 30.93214 V 60.095731 a 2.7334477,2.7334477 0 0 1 5.1853,-1.208932 M 195.05552,2.5768077 h 33.82581 V 100.71874 h -33.82581 z m 146.7808,39.7830733 v 18.090276 c 0,17.595052 6.63699,30.315536 19.72161,37.802173 20.87713,11.94852 50.9402,4.57355 64.11707,-5.170732 V 47.409234 h -30.54858 v 28.723047 l -0.58262,0.228192 a 17.434832,17.434832 0 0 1 -14.99755,-1.14096 16.298728,16.298728 0 0 1 -5.97183,-14.429496 V 40.548911 a 10.919225,10.919225 0 0 1 8.17121,-11.841703 11.327058,11.327058 0 0 1 13.45847,7.617725 L 424.79622,20.453458 A 40.812364,40.812364 0 0 0 387.17854,0.06184161 c -1.99546,0 -3.93752,0.09710294 -5.78733,0.26217793 A 46.725933,46.725933 0 0 0 354.16354,11.155852 40.525911,40.525911 0 0 0 341.8606,42.359881 M 83.930924,2.5768077 H 0 V 31.309567 H 25.246764 V 100.73817 H 58.635608 V 31.309567 h 25.27104 z m 69.297506,0 -21.14902,65.7144113 a 2.7334477,2.7334477 0 0 1 -5.34066,-0.835086 V 2.5719525 H 94.665653 V 100.71874 H 155.31129 L 188.50593,2.5768077 Z" fill="#ff143c"/>
</svg>