<svg xmlns="http://www.w3.org/2000/svg" xml:space="preserve" x="0px" y="0px" style="enable-background:new 0 0 3329.6 590" viewBox="0 0 3329.6 590"><path d="M495 299.4c-1.6-20.4-9.2-37-29.1-45.9-8.3-3.7-17-5.7-26-6.6-26.2-2.5-52.4-4.9-78.6-7.4-30.8-2.9-61.7-5.7-92.5-8.6-23.9-2.2-47.8-4.3-71.6-6.8-10.5-1.1-16.2-7.9-16.2-18.5v-38.5c0-11 4.5-15.5 15.6-15.1 40.3 1.2 80.6 2.6 120.9 3.9 7.5.3 12.4 5.2 12.5 12.7.1 9.5.2 19 0 28.5-.1 3.4 1 4 4.2 4.1 52.3.9 104.6 1.9 156.9 3 3.9.1 4.6-1 4.6-4.7-.2-28 0-56-.1-84 0-7-.4-14-2.1-20.8-9.6-39.4-41.1-64.9-81.7-66.7-23.3-1.1-46.6-2.8-69.8-4.3-40.1-2.5-80.1-5.1-120.2-7.7-28.9-1.9-57.8-3.8-86.8-5.6-15.8-1-31.5-2.7-47.2 1.1C41.5 22.7 8.5 63.3 8.2 110.9c-.4 57.1-.1 114.3-.1 171.4 0 8.7 1.4 17.2 4 25.5 7.3 22.9 27.2 40.5 48.5 42.1 37.9 2.8 75.8 5.4 113.7 8 41.9 2.8 83.8 5.5 125.6 8.4 7.1.5 14.3.3 21.2 2.7 8 2.7 11.1 6.8 11.2 15 .1 13.3.1 26.7 0 40-.1 8.8-4.7 13.6-13.5 13.9-41.6 1.3-83.3 2.7-124.9 3.9-9.5.3-14.7-4.7-14.7-14.2-.1-8.8-.3-17.7.1-26.5.2-3.9-1.1-4.6-4.7-4.5-27 .2-54 .1-81 .1-27.2 0-54.3.1-81.5-.1-3.2 0-4.1.8-4.1 4.1.2 26.5-.1 53 .2 79.5.5 43.7 31 83.4 72.9 95.8 16.2 4.8 32.5 4.2 49 3.1 44-3 88.1-5.6 132.2-8.4 50.5-3.2 101.1-6.5 151.6-9.8 21-1.4 39.5-8.6 54.9-23.1 18.5-17.6 26.9-39.5 26.9-64.9-.1-42.3 0-84.6 0-126.9-.1-15.6.5-31.1-.7-46.6zM2470.1 197.4c27.7-.3 55.3-.2 83-.2v-2.1c28.2 0 56.3-.1 84.5.1 4 0 4.5-1.3 4.5-4.8-.2-17.2.1-34.3-.1-51.5-.1-13.5.7-27-.8-40.4-5.6-49.4-49.1-88.8-98.7-89.4-11-.1-21.9 1.2-32.9 1.9-37.4 2.4-74.8 4.9-112.2 7.4-43.7 2.9-87.4 5.8-131.1 8.8-13.3.9-26.7.9-39.8 3.2-40.1 7.1-72.5 41.6-72 87.2.6 53.1.1 106.3.1 159.4 0 9.7.7 19.3 3.5 28.6 6.6 22.3 22.8 36.1 45.8 38.5 19 2 38.1 3.8 57.2 5.6 57.5 5.5 115.1 10.9 172.6 16.4 7.4.7 15 .8 22.1 3.7 8 3.3 11.2 7.8 11.3 16.4v39c0 10.5-4.8 15.2-15.4 14.8-24.3-.7-48.6-1.6-72.9-2.4l-51-1.8c-11.5-.4-15.7-4.5-15.7-15.8 0-7.7-.3-15.3.1-23 .2-4.5-1-5.8-5.6-5.9-49-.9-98-2-146.9-3.1-3.8-.1-5.1.7-5 4.8.2 26.2.1 52.3.1 78.5 0 4.5.1 9 .8 13.5 5.9 37.4 33.9 65.9 71.4 72.3 17.6 3 35.5 3 53.3 4.2 42.2 2.9 84.4 5.8 126.6 8.6 38.7 2.6 77.4 5.2 116.2 7.8 14.2 1 28.3 1.4 42.2-2.2 45.3-11.8 76.8-51.9 76.9-98.7.2-53.5 0-107 .1-160.4 0-6.2-.1-12.3-1-18.4-3.7-24.4-15.3-43-39.2-52.3-10.3-4-21.1-4.2-31.9-4.9-38.4-2.5-76.8-5.1-115.2-7.6-32.9-2.2-65.8-4.1-98.7-6.4-9.1-.6-18.4-.4-27.3-2.7-9.3-2.4-12.9-7.1-12.9-16.8v-36.5c0-10.6 3.9-14.9 14.7-15.2 40-1.3 79.9-2.5 119.9-3.6 8.8-.3 13.7 4.5 13.8 13.3.1 8.7.3 17.3-.1 26-.6 4.7.3 6.2 5.7 6.1zM1371.9 380.3c43.4-15.7 67.2-47.4 75.3-92 3-16.7 2.1-33.5 2-50.3-.1-21.8 1.5-43.7-1.2-65.4-4.3-35.3-20.3-63.7-50.7-83.1-26.2-16.7-55.6-22.8-85.9-24.2-35.6-1.6-71.3-2.2-106.9-3.2l-192.9-5.4c-9-.3-11.5 2-11.5 10.8v454.3c0 8.7 2.7 11.2 11.5 10.9 46.3-1.7 92.6-3.3 138.9-3.8 4.1 0 4.8-1.3 4.8-5.1-.1-38 0-76-.2-114 0-3.8.8-5 4.8-5 16.8-.2 33.7-.6 50.5-1.3 3.6-.2 5.6.8 7.6 3.9 24.5 37.6 46.7 76.6 70.2 114.9 2.1 3.4 4.3 4.6 8.3 4.6 55.3-.5 110.6-2.5 166-1.6.8 0 1.5-.1 2.9-.2-31.6-48.3-62.8-96.2-93.9-143.9.2-.6.3-.8.4-.9zm-79.7-136.6c-.1 7.2-4 12.2-10.3 15.2-4.7 2.2-9.8 3.2-15 3.2H1214v.1c-18.1 0-36.3-.1-54.4.1-3.5 0-4.4-1-4.4-4.4.2-18.3.2-36.6 0-54.9 0-3.7 1.2-4.3 4.5-4.3 35.1.2 70.2.3 105.4.5 4.7 0 9.3.4 13.8 1.7 8.5 2.4 12.8 7.3 13.2 16 .3 8.8.2 17.8.1 26.8zM949.1 54.9c-25.5-.6-51-1.4-76.4-2.2-68.9-2.2-137.9-4.3-206.8-6.7-36-1.2-71.9-2.9-107.9-4.6-11-.5-13.2 1.3-13.2 12.5v480.8c0 9.6 2.1 11.7 11.8 11.3 17.6-.7 35.3-1.5 52.9-2.4 73.4-3.4 146.8-5.5 220.3-7.8 40.1-1.2 80.3-2.5 120.4-3.7 2.6-.1 4.1-.2 4.1-3.7-.1-41.1-.1-82.3 0-123.4 0-3.2-.9-3.8-4-3.8-79.8 1.4-159.6 2.8-239.4 5.1-3.1.1-4-.6-3.9-3.7.2-13.7.3-27.3 0-41-.1-4.4 1.3-5 5.3-5.1 68.3-.5 136.6-1.3 204.9-1.8 4.2 0 5.2-1.1 5.2-5.2-.2-36.6-.2-73.3 0-109.9 0-4.6-1.2-5.7-5.7-5.7-68-.5-136-1.2-203.9-1.8-4.3 0-5.9-.8-5.8-5.6.4-13.1.1-26.3.1-39.5 0-6.2 0-6.3 6.4-6.1 78.6 2.3 157.2 3.7 235.9 5 3.8.1 5-.7 5-4.7-.2-40.5-.2-81 0-121.4 0-4.2-1.5-4.8-5.3-4.9zM1881 182.3c75.6-1.7 151.3-3.5 226.9-6.1 3-.1 4.3-.5 4.2-4-.1-40.5-.1-81-.1-121.5 0-7-3.2-9.7-10.4-9.4-49.1 2.2-98.2 4.7-147.3 6.5-80.6 3-161.2 5.5-241.8 8-4.3.1-5 1.4-5 5.3.1 155.3.1 310.5 0 465.8 0 4 .8 5.3 5 5.4 65 1.8 129.9 3.8 205.9 6.1 11.8.4 34.6 1.1 57.4 2 42.1 1.8 84.2 3.8 126.3 5.6 7 .3 9.8-2.4 9.8-9.3 0-40.3 0-80.6.1-121 0-3.6-1.3-4.3-4.5-4.4-13.2-.3-26.3-.9-39.5-1.3-65.6-1.7-131.3-3.4-196.9-5-3.2-.1-4.2-.7-4.2-4.1.2-12.5.3-25 0-37.5-.1-4.5.9-5.8 5.6-5.7 67.8.9 135.6 1.6 203.4 2.5 4.1.1 5.2-.7 5.2-5-.2-40.3-.2-80.6 0-120.9 0-4.8-1.5-5.5-5.8-5.4-67.5.9-135 1.5-202.4 2.4-5.3.1-6.3-1.5-6.1-6.3.4-9.5 0-19 .1-28.5.1-4.5-1.9-10.3.8-13 3-2.7 8.8-1.1 13.3-1.2zM1674.8 68.6c-.3-6-3.1-8.8-9.2-8.6-50.3 1.6-100.6.6-151 1.3-4.5.1-5.7 1.2-5.7 5.8.2 75.8.1 151.6.1 227.4 0 75.8 0 151.6-.1 227.4 0 4.2 1 5.1 5.1 5.2 35.3.7 70.6 1.6 105.9 2.6 15.2.4 30.3.9 45.5 1.3 6.3.1 9.1-2.7 9.3-9V72.7c.1-1.4.1-2.7.1-4.1zM3313.4 216.8c-10.9-48.4-41.5-80.2-90.8-87.3-133.8-19.3-268-19.2-401.8-.2-50.2 7.1-82.1 40.1-91.7 90.4-9.2 48-9.2 96.7-.7 144.8 9.7 55.3 39.8 84.9 95.5 95.2 65.2 12 131.2 12.4 197.2 12.8 67.2-.3 134.5-1.2 200.9-13.2 49.4-8.9 80.1-38.8 91.2-86.9 12-51.6 11.9-104 .2-155.6zm-390.8 165.4c-51.6.4-92.1-37.9-92.6-87.7-.5-49.5 39.6-88 91.8-88.2 52.5-.2 92.3 37.5 92.3 87.4 0 50-39.3 88.1-91.5 88.5zm256.4 1c-27.1-.4-31.2-12.6-29.6-34.6 1.1-14.9.1-29.9.2-44.9.1-17-.3-34.8-23.7-34-23.6.7-21.7 19.6-21.9 35.8-.2 15-1.3 30 .2 44.8 2.5 24.3-6.6 32.5-31.5 32.7-25.5.2-33.2-9.5-31.5-33.1 1.3-18.6-.1-37.4.4-56.1 1.4-53.3 35.8-88.3 86-87.6 50.3.6 83.1 35.5 83.8 89.3.1 7.5 0 15 0 22.4 0 10-.9 20 .2 29.9 2.7 24.9-4.9 35.8-32.6 35.4z"/><path d="M2921.5 261.6c-20.6.4-32.5 12.6-32.4 32.4.1 21.6 13.5 35 35.2 33.8 19.7-1.1 30.1-14.6 30.9-35.7-2.7-18.9-12.9-31-33.7-30.5z"/></svg>